<svg xmlns="http://www.w3.org/2000/svg" viewBox="0 0 1280 720" width="1280" height="720" role="img" aria-labelledby="preview-title">
  <title id="preview-title">Trash Current Track — enhanced project icon</title>
  <defs>
    <linearGradient id="background" x2="1" y2="1"><stop stop-color="#f4f7f3"/><stop offset="1" stop-color="#e3f4ed"/></linearGradient>
    <linearGradient id="icon-fill" x2="0.8" y2="1"><stop stop-color="#a5e4d8"/><stop offset="1" stop-color="#147a72"/></linearGradient>
    <radialGradient id="halo"><stop stop-color="#fff" stop-opacity="0.85"/><stop offset="1" stop-color="#a5e4d8" stop-opacity="0.15"/></radialGradient>
    <pattern id="dots" width="38" height="38" patternUnits="userSpaceOnUse"><circle cx="1" cy="1" r="1.4" fill="#147a72" opacity="0.13"/></pattern>
    <filter id="shadow" x="-30%" y="-30%" width="160%" height="170%"><feDropShadow dx="0" dy="18" stdDeviation="14" flood-color="#147a72" flood-opacity="0.22"/></filter>
  </defs>
  <rect width="1280" height="720" fill="url(#background)"/>
  <rect width="1280" height="720" fill="url(#dots)"/>
  <circle cx="640" cy="330" r="246" fill="url(#halo)" stroke="#147a72" stroke-opacity="0.1" stroke-width="2"/>
  <circle cx="640" cy="330" r="276" fill="none" stroke="#147a72" stroke-opacity="0.14" stroke-width="2" stroke-dasharray="4 15"/>
  <g fill="#147a72" opacity="0.35"><circle cx="360" cy="154" r="7"/><circle cx="947" cy="462" r="6"/><circle cx="326" cy="288" r="4"/></g>
  <g transform="translate(862 174) rotate(12)" fill="#147a72">
          <rect width="138" height="138" rx="32" fill="#f3faf7" stroke="#b5dcd0" stroke-width="2"/>
          <path d="M77 58v39c0 13-32 20-37 8-5-12 19-24 29-19V42l37-9v18z"/>
        </g><g font-family="ui-monospace, monospace" font-size="24" font-weight="600" text-anchor="middle" fill="#147a72"><rect x="371.0" y="563" width="150" height="60" rx="16" fill="#fff" fill-opacity="0.85" stroke="#147a72" stroke-opacity="0.22" stroke-width="2"/><text x="446.0" y="602">META</text><rect x="535.0" y="563" width="165" height="60" rx="16" fill="#fff" fill-opacity="0.85" stroke="#147a72" stroke-opacity="0.22" stroke-width="2"/><text x="617.5" y="602">SHIFT</text><rect x="714.0" y="563" width="195" height="60" rx="16" fill="#fff" fill-opacity="0.85" stroke="#147a72" stroke-opacity="0.22" stroke-width="2"/><text x="811.5" y="602">DELETE</text></g>
  <g filter="url(#shadow)"><svg xmlns="http://www.w3.org/2000/svg" viewBox="0 0 48 48" x="460.0" y="150.0" width="360" height="360">
  <defs id="defs3051">
    <style type="text/css" id="current-color-scheme">
      .ColorScheme-Text {
        color:#31363b;
      }
      .ColorScheme-Accent {
        color:#3daee9;
      }
      </style>
  </defs>
  <path style="fill:url(#icon-fill)" d="M 18,4 C 17,4 16,5 16,6 V 9 H 7.5 C 6.7,9 6,10.1 6,11.1 V 12 H 9 V 42.6 C 9,43.4 9.6,44 10.5,44 h 27 C 38.3,44 39,43.4 39,42.6 V 12 h 3 V 11 C 42,10.1 41.4,9 40.5,9 H 32 V 6 C 32,5 31,4 30,4 Z m 1,3 H 29 V 9 H 19 Z" id="path4" />
  <path style="fill-opacity:0.33" d="M 13.5,14 C 12.6,14 12,14.6 12,15.4 V 39.6 C 12,40.4 12.6,41 13.5,41 14.4,41 15,40.4 15,39.6 V 15.4 C 15,14.6 14.331,14 13.5,14 Z m 7,0 C 19.6,14 19,14.6 19,15.4 V 39.6 C 19,40.4 19.6,41 20.5,41 21.4,41 22,40.4 22,39.6 V 15.4 C 22,14.6 21.331,14 20.5,14 Z m 7,0 C 26.6,14 26,14.6 26,15.4 V 39.6 C 26,40.4 26.6,41 27.5,41 28.4,41 29,40.4 29,39.6 V 15.4 C 29,14.6 28.331,14 27.5,14 Z m 7,0 C 33.6,14 33,14.6 33,15.4 V 39.6 C 33,40.4 33.6,41 34.5,41 35.4,41 36,40.4 36,39.6 V 15.4 C 36,14.6 35.331,14 34.5,14 Z" id="path6" />
  <path style="fill-opacity:0.33" d="M 9 41.5 L 9 42.5 C 9 43.3 9.6 44 10.5 44 L 37.5 44 C 38.3 44 39 43.4 39 42.5 L 39 41.5 C 39 42.3 38.4 43 37.5 43 L 10.5 43 C 9.7 43 9 42.4 9 41.5 z " id="path8" />
  <path style="fill-opacity:0.33" d="M 18.75,6 C 18.05,6 18,6.3 18,6.7 V 9 h 1 V 7 h 10 v 2 h 1 V 6.8 C 30,6.4 29.7,6 29.25,6 Z M 6,11 v 1 h 36 v -1 z" />
  <path style="fill:#ffffff;fill-opacity:0.2" d="m 9,12 v 0.5 L 39,13 v -1 z" />
</svg></g>
</svg>
